# xmcd CD database file
#
# Track frame offsets:
#	150
#	21656
#	41359
#	65870
#	90317
#	111011
#	128879
#	144968
#	165739
#	186679
#	206370
#	219574
#
# Disc length: 3295 seconds
#
# Revision: 1
# Processed by: cddbd v1.5PL3 Copyright (c) Steve Scherf et al.
# Submitted via: CDex 1.50
#
DISCID=b10cdd0c
DTITLE=Ken Davis - Celebration of life
DYEAR=1900
DGENRE=New Age
TTITLE0=Eternity
TTITLE1=Holding Your Hand
TTITLE2=Land Far Away
TTITLE3=Atlantis
TTITLE4=Said You Were Wrong
TTITLE5=Sugar
TTITLE6=Incantation
TTITLE7=LA Cool
TTITLE8=Shaken Not Stirred
TTITLE9=Celabration Of Life
TTITLE10=Spacial Jazz
TTITLE11=Sunset Over Bali
EXTD=
EXTT0=
EXTT1=
EXTT2=
EXTT3=
EXTT4=
EXTT5=
EXTT6=
EXTT7=
EXTT8=
EXTT9=
EXTT10=
EXTT11=
PLAYORDER=
